<svg width="32" height="32" viewBox="0 0 32 32" fill="none" xmlns="http://www.w3.org/2000/svg">
<circle cx="16" cy="16" r="16" fill="#0D28A6"/>
<path d="M20.1666 7.66663H11.8333C9.53211 7.66663 7.66663 9.53211 7.66663 11.8333V20.1666C7.66663 22.4678 9.53211 24.3333 11.8333 24.3333H20.1666C22.4678 24.3333 24.3333 22.4678 24.3333 20.1666V11.8333C24.3333 9.53211 22.4678 7.66663 20.1666 7.66663Z" stroke="white" stroke-linecap="round" stroke-linejoin="round"/>
<path d="M19.3334 15.475C19.4362 16.1685 19.3178 16.8769 18.9948 17.4992C18.6719 18.1215 18.161 18.6262 17.5347 18.9414C16.9085 19.2566 16.1987 19.3663 15.5065 19.2549C14.8143 19.1436 14.1748 18.8167 13.6791 18.321C13.1833 17.8252 12.8565 17.1857 12.7451 16.4935C12.6337 15.8013 12.7434 15.0916 13.0586 14.4653C13.3739 13.8391 13.8785 13.3281 14.5009 13.0052C15.1232 12.6823 15.8315 12.5638 16.525 12.6667C17.2325 12.7716 17.8874 13.1012 18.3931 13.6069C18.8988 14.1126 19.2285 14.7676 19.3334 15.475Z" stroke="white" stroke-linecap="round" stroke-linejoin="round"/>
<path d="M20.5834 11.4166H20.5917" stroke="white" stroke-linecap="round" stroke-linejoin="round"/>
</svg>
