<svg width="32" height="32" viewBox="0 0 32 32" fill="none" xmlns="http://www.w3.org/2000/svg">
<circle cx="16" cy="16" r="16" fill="#0D28A6"/>
<path d="M25.1667 8.49996C24.3687 9.06285 23.4851 9.49338 22.55 9.77496C22.0482 9.19788 21.3812 8.78887 20.6392 8.60323C19.8973 8.41759 19.1163 8.46429 18.4018 8.737C17.6873 9.00972 17.0737 9.49529 16.6442 10.1281C16.2146 10.7608 15.9898 11.5102 16 12.275V13.1083C14.5356 13.1463 13.0844 12.8215 11.7759 12.1628C10.4673 11.5042 9.34197 10.5322 8.50004 9.33329C8.50004 9.33329 5.16671 16.8333 12.6667 20.1666C10.9505 21.3316 8.906 21.9157 6.83337 21.8333C14.3334 26 23.5 21.8333 23.5 12.25C23.4993 12.0178 23.477 11.7863 23.4334 11.5583C24.2839 10.7195 24.8841 9.66055 25.1667 8.49996V8.49996Z" stroke="white" stroke-linecap="round" stroke-linejoin="round"/>
</svg>
